HIERARCHY
ROOT Hips
{
  OFFSET 377.763 88.2609 174.383
  CHANNELS 6 Xposition Yposition Zposition Zrotation Xrotation Yrotation
  JOINT RightUpLeg
  {
    OFFSET -9.30536 -1.56319 -0.0308412
    CHANNELS 3 Zrotation Xrotation Yrotation
    JOINT RightLeg
    {
      OFFSET -0.0509473 -41.8867 0.0408735
      CHANNELS 3 Zrotation Xrotation Yrotation
      JOINT RightFoot
      {
        OFFSET -0.135761 -42.7852 -0.897951
        CHANNELS 3 Zrotation Xrotation Yrotation
        End Site
        {
          OFFSET 0 -7.69 17.5
        }
      }
    }
  }
  JOINT LeftUpLeg
  {
    OFFSET 9.25165 -1.62789 -0.00729124
    CHANNELS 3 Zrotation Xrotation Yrotation
    JOINT LeftLeg
    {
      OFFSET 0.024936 -41.8804 0.00207043
      CHANNELS 3 Zrotation Xrotation Yrotation
      JOINT LeftFoot
      {
        OFFSET 0.245063 -40.7505 0.529473
        CHANNELS 3 Zrotation Xrotation Yrotation
        End Site
        {
          OFFSET 0 -7.69 17.5
        }
      }
    }
  }
  JOINT Spine
  {
    OFFSET 0.0381636 14.2969 0.0214663
    CHANNELS 3 Zrotation Xrotation Yrotation
    JOINT Spine1
    {
      OFFSET 0.0273681 9.71499 0.0100001
      CHANNELS 3 Zrotation Xrotation Yrotation
      JOINT Spine2
      {
        OFFSET 0.029022 10.1215 -0.000399631
        CHANNELS 3 Zrotation Xrotation Yrotation
        JOINT Spine3
        {
          OFFSET 0.0290531 9.71322 0.0107928
          CHANNELS 3 Zrotation Xrotation Yrotation
          JOINT Neck
          {
            OFFSET 0.0830829 10.3832 0.0498053
            CHANNELS 3 Zrotation Xrotation Yrotation
            JOINT Head
            {
              OFFSET 0.0700972 9.47827 0.0499309
              CHANNELS 3 Zrotation Xrotation Yrotation
              End Site
              {
                OFFSET 0 15.95 0
              }
            }
          }
          JOINT RightShoulder
          {
            OFFSET -3.16088 6.93633 0.0290789
            CHANNELS 3 Zrotation Xrotation Yrotation
            JOINT RightArm
            {
              OFFSET -12.7509 0.028765 0.0682708
              CHANNELS 3 Zrotation Xrotation Yrotation
              JOINT RightForeArm
              {
                OFFSET -26.5067 -0.0728143 0.13822
                CHANNELS 3 Zrotation Xrotation Yrotation
                JOINT RightHand
                {
                  OFFSET -25.9897 -0.0664148 0.00141744
                  CHANNELS 3 Zrotation Xrotation Yrotation
                  JOINT RightHandThumb1
                  {
                    OFFSET -2.48905 0.190105 3.12053
                    CHANNELS 3 Zrotation Xrotation Yrotation
                    JOINT RightHandThumb2
                    {
                      OFFSET -3.68274 0 0
                      CHANNELS 3 Zrotation Xrotation Yrotation
                      JOINT RightHandThumb3
                      {
                        OFFSET -2.55832 0 0
                        CHANNELS 3 Zrotation Xrotation Yrotation
                        End Site
                        {
                          OFFSET -2.194 0 0
                        }
                      }
                    }
                  }
                  JOINT RightInHandIndex
                  {
                    OFFSET -3.22368 0.508421 1.97842
                    CHANNELS 3 Zrotation Xrotation Yrotation
                    JOINT RightHandIndex1
                    {
                      OFFSET -5.21684 -0.091368 0.999158
                      CHANNELS 3 Zrotation Xrotation Yrotation
                      JOINT RightHandIndex2
                      {
                        OFFSET -3.61937 0 0
                        CHANNELS 3 Zrotation Xrotation Yrotation
                        JOINT RightHandIndex3
                        {
                          OFFSET -2.0521 0 0
                          CHANNELS 3 Zrotation Xrotation Yrotation
                          End Site
                          {
                            OFFSET -1.805 0 0
                          }
                        }
                      }
                    }
                  }
                  JOINT RightInHandMiddle
                  {
                    OFFSET -3.38211 0.517263 0.756737
                    CHANNELS 3 Zrotation Xrotation Yrotation
                    JOINT RightHandMiddle1
                    {
                      OFFSET -5.17411 -0.084 0.313895
                      CHANNELS 3 Zrotation Xrotation Yrotation
                      JOINT RightHandMiddle2
                      {
                        OFFSET -3.94947 0 0
                        CHANNELS 3 Zrotation Xrotation Yrotation
                        JOINT RightHandMiddle3
                        {
                          OFFSET -2.47579 0 0
                          CHANNELS 3 Zrotation Xrotation Yrotation
                          End Site
                          {
                            OFFSET -1.975 0 0
                          }
                        }
                      }
                    }
                  }
                  JOINT RightInHandRing
                  {
                    OFFSET -3.36516 0.537895 -0.128947
                    CHANNELS 3 Zrotation Xrotation Yrotation
                    JOINT RightHandRing1
                    {
                      OFFSET -4.63474 -0.022105 -0.478947
                      CHANNELS 3 Zrotation Xrotation Yrotation
                      JOINT RightHandRing2
                      {
                        OFFSET -3.44238 0 0
                        CHANNELS 3 Zrotation Xrotation Yrotation
                        JOINT RightHandRing3
                        {
                          OFFSET -2.3881 0 0
                          CHANNELS 3 Zrotation Xrotation Yrotation
                          End Site
                          {
                            OFFSET -1.857 0 0
                          }
                        }
                      }
                    }
                  }
                  JOINT RightInHandPinky
                  {
                    OFFSET -3.16105 0.469368 -1.20179
                    CHANNELS 3 Zrotation Xrotation Yrotation
                    JOINT RightHandPinky1
                    {
                      OFFSET -4.14105 -0.022105 -1.09053
                      CHANNELS 3 Zrotation Xrotation Yrotation
                      JOINT RightHandPinky2
                      {
                        OFFSET -2.75653 0 0
                        CHANNELS 3 Zrotation Xrotation Yrotation
                        JOINT RightHandPinky3
                        {
                          OFFSET -1.74189 0 0
                          CHANNELS 3 Zrotation Xrotation Yrotation
                          End Site
                          {
                            OFFSET -1.645 0 0
                          }
                        }
                      }
                    }
                  }
                }
              }
            }
          }
          JOINT LeftShoulder
          {
            OFFSET 3.23403 6.91572 -0.0126821
            CHANNELS 3 Zrotation Xrotation Yrotation
            JOINT LeftArm
            {
              OFFSET 12.8488 -0.0444641 -0.0528339
              CHANNELS 3 Zrotation Xrotation Yrotation
              JOINT LeftForeArm
              {
                OFFSET 26.4942 -0.0237746 -0.09002
                CHANNELS 3 Zrotation Xrotation Yrotation
                JOINT LeftHand
                {
                  OFFSET 25.9989 -0.00653758 -0.026747
                  CHANNELS 3 Zrotation Xrotation Yrotation
                  JOINT LeftHandThumb1
                  {
                    OFFSET 2.48905 0.190105 3.12053
                    CHANNELS 3 Zrotation Xrotation Yrotation
                    JOINT LeftHandThumb2
                    {
                      OFFSET 3.68274 0 0
                      CHANNELS 3 Zrotation Xrotation Yrotation
                      JOINT LeftHandThumb3
                      {
                        OFFSET 2.55832 0 0
                        CHANNELS 3 Zrotation Xrotation Yrotation
                        End Site
                        {
                          OFFSET 2.194 0 0
                        }
                      }
                    }
                  }
                  JOINT LeftInHandIndex
                  {
                    OFFSET 3.22368 0.508421 1.97842
                    CHANNELS 3 Zrotation Xrotation Yrotation
                    JOINT LeftHandIndex1
                    {
                      OFFSET 5.21684 -0.091368 0.999158
                      CHANNELS 3 Zrotation Xrotation Yrotation
                      JOINT LeftHandIndex2
                      {
                        OFFSET 3.61937 0 0
                        CHANNELS 3 Zrotation Xrotation Yrotation
                        JOINT LeftHandIndex3
                        {
                          OFFSET 2.0521 0 0
                          CHANNELS 3 Zrotation Xrotation Yrotation
                          End Site
                          {
                            OFFSET 1.805 0 0
                          }
                        }
                      }
                    }
                  }
                  JOINT LeftInHandMiddle
                  {
                    OFFSET 3.38211 0.517263 0.756737
                    CHANNELS 3 Zrotation Xrotation Yrotation
                    JOINT LeftHandMiddle1
                    {
                      OFFSET 5.17411 -0.084 0.313895
                      CHANNELS 3 Zrotation Xrotation Yrotation
                      JOINT LeftHandMiddle2
                      {
                        OFFSET 3.94947 0 0
                        CHANNELS 3 Zrotation Xrotation Yrotation
                        JOINT LeftHandMiddle3
                        {
                          OFFSET 2.47579 0 0
                          CHANNELS 3 Zrotation Xrotation Yrotation
                          End Site
                          {
                            OFFSET 1.975 0 0
                          }
                        }
                      }
                    }
                  }
                  JOINT LeftInHandRing
                  {
                    OFFSET 3.36516 0.537895 -0.128947
                    CHANNELS 3 Zrotation Xrotation Yrotation
                    JOINT LeftHandRing1
                    {
                      OFFSET 4.63474 -0.022105 -0.478947
                      CHANNELS 3 Zrotation Xrotation Yrotation
                      JOINT LeftHandRing2
                      {
                        OFFSET 3.44238 0 0
                        CHANNELS 3 Zrotation Xrotation Yrotation
                        JOINT LeftHandRing3
                        {
                          OFFSET 2.3881 0 0
                          CHANNELS 3 Zrotation Xrotation Yrotation
                          End Site
                          {
                            OFFSET 1.857 0 0
                          }
                        }
                      }
                    }
                  }
                  JOINT LeftInHandPinky
                  {
                    OFFSET 3.16105 0.469368 -1.20179
                    CHANNELS 3 Zrotation Xrotation Yrotation
                    JOINT LeftHandPinky1
                    {
                      OFFSET 4.14105 -0.022105 -1.09053
                      CHANNELS 3 Zrotation Xrotation Yrotation
                      JOINT LeftHandPinky2
                      {
                        OFFSET 2.75653 0 0
                        CHANNELS 3 Zrotation Xrotation Yrotation
                        JOINT LeftHandPinky3
                        {
                          OFFSET 1.74189 0 0
                          CHANNELS 3 Zrotation Xrotation Yrotation
                          End Site
                          {
                            OFFSET 1.645 0 0
                          }
                        }
                      }
                    }
                  }
                }
              }
            }
          }
        }
      }
    }
  }
}
MOTION
Frames: 2
Frame Time: 0.00833333
2.627762999999999920e+03 8.826089999999999236e+01 1.743830000000000098e+02 3.023860000000000525e+01 1.218849999999999945e+01 -7.067770000000000152e+01 -2.668290000000000006e+01 -5.883449999999999847e+01 -3.212069999999999936e+01 -8.568940000000000445e-01 2.350399999999999778e+01 -5.512609999999998678e+00 7.989069999999999894e+00 8.023529999999999163e+00 2.660679999999999978e+01 1.478809999999999647e+01 -5.296130000000000138e+01 2.768569999999999975e+00 2.456879999999999953e+00 3.123679999999999524e+01 3.136630000000000251e+00 -1.392540000000000155e+01 -8.877340000000000231e+00 -1.580639999999999645e+01 -7.485590000000001076e+00 1.023930000000000007e+01 1.496209999999999951e+01 -1.626370000000000093e+00 2.761169999999999458e+00 3.597529999999999895e+00 -2.715859999999999719e+00 4.505509999999999238e+00 5.853550000000000253e+00 -3.359679999999999889e-01 -3.087260000000000004e-01 -4.237409999999999233e-01 -3.363889999999999936e-01 -3.198250000000000259e-01 -4.222359999999998337e-01 -6.434749999999999304e+00 -5.985149999999999082e+00 -7.442429999999998991e+00 5.864129999999999621e-01 -1.133530000000000015e+01 2.284209999999999852e+01 6.776140000000000896e+01 -2.840950000000000308e+00 5.173189999999999600e+01 1.842399999999999594e+01 -5.938529999999999376e+01 9.521170000000001465e+00 1.569150000000000134e+01 -1.562979999999999947e+01 -1.861050000000000182e+01 2.818400000000000105e+01 1.072940000000000005e+01 1.915919999999999845e+01 1.488130000000000143e-14 1.113190000000000089e-14 -1.000000000000000000e+01 2.092000000000000073e-14 8.746529999999998969e-15 -1.000000000000000000e+01 -3.180549999999999982e-15 1.590280000000000668e-15 -1.590280000000000471e-15 1.998179999999999978e+01 8.718970000000000331e-01 2.396399999999999864e+00 2.400000000000000000e+01 6.957459999999999265e-15 4.770830000000000256e-15 2.000000000000000000e+01 4.373260000000001174e-15 4.134720000000000733e-14 -3.180549999999999982e-15 1.590280000000000668e-15 -1.590280000000000471e-15 2.000000000000000000e+01 1.590280000000000274e-15 -1.590279999999999485e-15 2.400000000000000000e+01 1.789059999999999927e-15 -3.180550000000003926e-15 2.000000000000000000e+01 7.951389999999983449e-16 4.452780000000000541e-14 -3.180549999999999982e-15 1.590280000000000668e-15 -1.590280000000000471e-15 1.997479999999999833e+01 -1.025649999999999951e+00 -2.819380000000000219e+00 2.400000000000000000e+01 9.541660000000000512e-15 1.908330000000000462e-14 2.000000000000000000e+01 1.908330000000000147e-14 3.498609999999999317e-14 -3.180549999999999982e-15 1.590280000000000668e-15 -1.590280000000000471e-15 1.978150000000000119e+01 -3.009479999999999933e+00 -8.305149999999999366e+00 2.400000000000000000e+01 9.939229999999999594e-15 2.226390000000000270e-14 2.000000000000000000e+01 6.361109999999999741e-15 3.498610000000000579e-14 7.839949999999999974e+00 -1.158779999999999966e+01 -2.906339999999999790e+01 -4.717730000000000246e+01 2.553089999999999904e+01 -6.662730000000000530e+01 1.456840000000000046e+01 -6.458799999999999386e+01 1.403300000000000125e+01 -2.723809999999999931e+01 -1.739209999999999567e+01 1.010459999999999958e+01 -2.818400000000000105e+01 1.072940000000000005e+01 -1.915919999999999845e+01 -1.397250000000000054e-14 -3.180550000000000771e-15 1.000000000000000000e+01 -2.527609999999999907e-14 -3.180549999999999587e-15 1.000000000000000000e+01 -1.590279999999999485e-15 -3.180549999999999982e-15 -6.361109999999999741e-15 -1.998179999999999978e+01 8.718970000000000331e-01 -2.396399999999999864e+00 -2.400000000000000000e+01 -3.578119999999999853e-15 -3.180550000000000771e-15 -2.000000000000000000e+01 -3.975689999999999725e-15 1.908329999999999831e-14 -1.590279999999999485e-15 -3.180549999999999982e-15 -6.361109999999999741e-15 -2.000000000000000000e+01 4.770830000000001045e-15 1.908330000000000462e-14 -2.400000000000000000e+01 0.000000000000000000e+00 6.361109999999996586e-15 -2.000000000000000000e+01 -1.590279999999999485e-15 -6.361109999999996586e-15 -1.590279999999999485e-15 -3.180549999999999982e-15 -6.361109999999999741e-15 -1.997479999999999833e+01 -1.025649999999999951e+00 2.819380000000000219e+00 -2.400000000000000000e+01 3.180549999999999982e-15 6.361109999999999741e-15 -2.000000000000000000e+01 -4.770830000000000256e-15 -3.180549999999999193e-15 -1.590279999999999485e-15 -3.180549999999999982e-15 -6.361109999999999741e-15 -1.978150000000000119e+01 -3.009479999999999933e+00 8.305149999999999366e+00 -2.400000000000000000e+01 -1.689670000000000100e-15 -3.180549999999999982e-15 -2.000000000000000000e+01 -6.361109999999999741e-15 6.361109999999996586e-15
2.627762999999999920e+03 8.826089999999999236e+01 1.743770000000000380e+02 3.019369999999999976e+01 1.217079999999999984e+01 -7.067470000000001562e+01 -2.657750000000000057e+01 -5.878849999999999909e+01 -3.200560000000000116e+01 -8.787959999999999106e-01 2.347360000000000113e+01 -5.464740000000000819e+00 7.993920000000002801e+00 8.024820000000000064e+00 2.654639999999999844e+01 1.484200000000000230e+01 -5.290950000000000131e+01 2.854919999999999458e+00 2.409090000000000398e+00 3.127619999999999933e+01 3.185480000000000089e+00 -1.391749999999999865e+01 -8.909769999999998191e+00 -1.590200000000000102e+01 -7.434260000000000979e+00 1.024400000000000155e+01 1.486100000000000065e+01 -1.615180000000000060e+00 2.761239999999999917e+00 3.572660000000000391e+00 -2.697389999999999954e+00 4.500110000000000277e+00 5.814930000000000376e+00 -3.359280000000000044e-01 -3.087269999999999737e-01 -4.162139999999999174e-01 -3.363470000000000071e-01 -3.198250000000000259e-01 -4.147150000000010550e-01 -6.458429999999999893e+00 -5.958440000000001291e+00 -7.309249999999997804e+00 5.701300000000000257e-01 -1.112260000000000204e+01 2.275300000000000011e+01 6.778100000000000591e+01 -2.949199999999999378e+00 5.163260000000000360e+01 1.998329999999999629e+01 -5.982620000000000005e+01 1.123889999999999745e+01 1.566249999999999964e+01 -1.558649999999999913e+01 -1.849160000000000181e+01 2.818400000000000105e+01 1.072940000000000005e+01 1.915919999999999845e+01 3.084539999999999749e-14 1.008829999999999789e-14 -1.000000000000000000e+01 4.029769999999999373e-14 8.746530000000000547e-15 -1.000000000000000000e+01 -9.541660000000000512e-15 4.770830000000000256e-15 -1.590280000000000274e-15 1.998179999999999978e+01 8.718970000000000331e-01 2.396399999999999864e+00 2.400000000000000000e+01 2.584200000000001247e-15 2.544439999999999354e-14 2.000000000000000000e+01 6.758680000000001190e-15 4.134720000000000733e-14 -9.541660000000000512e-15 4.770830000000000256e-15 -1.590280000000000274e-15 2.000000000000000000e+01 -1.590280000000000274e-15 3.180549999999999982e-15 2.400000000000000000e+01 1.192709999999999614e-15 1.590280000000000116e-14 2.000000000000000000e+01 7.951389999999997649e-15 6.679160000000000087e-14 -9.541660000000000512e-15 4.770830000000000256e-15 -1.590280000000000274e-15 1.997479999999999833e+01 -1.025649999999999951e+00 -2.819380000000000219e+00 2.400000000000000000e+01 8.348960000000001464e-15 1.590280000000000116e-14 2.000000000000000000e+01 1.192710000000000087e-14 4.452779999999999910e-14 -9.541660000000000512e-15 4.770830000000000256e-15 -1.590280000000000274e-15 1.978150000000000119e+01 -3.009479999999999933e+00 -8.305149999999999366e+00 2.400000000000000000e+01 0.000000000000000000e+00 1.272219999999999993e-14 2.000000000000000000e+01 9.541659999999998934e-15 2.862500000000000425e-14 7.827890000000000015e+00 -1.155560000000000009e+01 -2.913250000000000028e+01 -4.708379999999998233e+01 2.555570000000000164e+01 -6.671540000000000248e+01 1.465899999999999892e+01 -6.383030000000000115e+01 1.406819999999999915e+01 -2.713839999999999719e+01 -1.735660000000000025e+01 1.011919999999999753e+01 -2.818400000000000105e+01 1.072940000000000005e+01 -1.915919999999999845e+01 -3.229619999999998233e-15 0.000000000000000000e+00 1.000000000000000000e+01 -2.204650000000000039e-14 -3.180549999999999193e-15 1.000000000000000000e+01 -7.951390000000000804e-15 3.180549999999996826e-15 0.000000000000000000e+00 -1.998179999999999978e+01 8.718970000000000331e-01 -2.396399999999999864e+00 -2.400000000000000000e+01 2.385420000000000411e-15 -1.590280000000000116e-14 -2.000000000000000000e+01 -2.385420000000000017e-15 -1.590280000000000116e-14 -7.951390000000000804e-15 3.180549999999996826e-15 0.000000000000000000e+00 -2.000000000000000000e+01 0.000000000000000000e+00 2.544439999999999670e-14 -2.400000000000000000e+01 -7.951389999999999226e-16 -9.541660000000000512e-15 -2.000000000000000000e+01 1.590280000000000274e-15 -9.541659999999998934e-15 -7.951390000000000804e-15 3.180549999999996826e-15 0.000000000000000000e+00 -1.997479999999999833e+01 -1.025649999999999951e+00 2.819380000000000219e+00 -2.400000000000000000e+01 -3.578119999999999064e-15 3.180549999999997615e-15 -2.000000000000000000e+01 -4.770830000000000256e-15 0.000000000000000000e+00 -7.951390000000000804e-15 3.180549999999996826e-15 0.000000000000000000e+00 -1.978150000000000119e+01 -3.009479999999999933e+00 8.305149999999999366e+00 -2.400000000000000000e+01 8.100480000000000235e-15 0.000000000000000000e+00 -2.000000000000000000e+01 -4.770830000000000256e-15 -9.541660000000000512e-15
